<svg width="48" height="45" viewBox="0 0 48 45" fill="none" xmlns="http://www.w3.org/2000/svg">
<path fill-rule="evenodd" clip-rule="evenodd" d="M1.19118 0.892378C0.3125 1.77106 0.3125 3.18527 0.3125 6.0137V9.46663C0.504417 9.46645 0.698458 9.52142 0.86979 9.63641L23.8203 25.0403L46.7708 9.63641C46.9422 9.52142 47.1362 9.46645 47.3281 9.46663V6.0137C47.3281 3.18527 47.3281 1.77106 46.4494 0.892378C45.5708 0.0136986 44.1566 0.0136986 41.3281 0.0136986H6.3125C3.48407 0.0136986 2.06986 0.0136986 1.19118 0.892378ZM47.3281 11.6711L24.9349 26.7009C24.2607 27.1534 23.3799 27.1534 22.7057 26.7009L0.3125 11.6711V38.1918C0.3125 41.0202 0.3125 42.4344 1.19118 43.3131C2.06986 44.1918 3.48407 44.1918 6.3125 44.1918H41.3281C44.1566 44.1918 45.5708 44.1918 46.4494 43.3131C47.3281 42.4344 47.3281 41.0202 47.3281 38.1918V11.6711Z" fill="#222222"/>
</svg>
